<?xml version="1.0" encoding="UTF-8"?>
<svg version="1.1" xmlns="http://www.w3.org/2000/svg" width="499" height="180">
<path d="M0 0 C0.66569504 -0.00700928 1.33139008 -0.01401855 2.01725769 -0.02124023 C4.20659734 -0.03877248 6.39463276 -0.02721615 8.58398438 -0.01367188 C10.11185961 -0.0163682 11.63973316 -0.0202518 13.16760254 -0.02526855 C16.36531965 -0.03115708 19.56258896 -0.02262206 22.76025391 -0.00390625 C26.85276179 0.0188836 30.94422035 0.00575696 35.03668976 -0.01819611 C38.19036725 -0.03267196 41.34379723 -0.02804005 44.4974823 -0.01768494 C46.00612005 -0.01502256 47.51478049 -0.01827023 49.02339172 -0.02760315 C51.13468675 -0.0377991 53.24429865 -0.02222906 55.35546875 0 C57.15485901 0.00477356 57.15485901 0.00477356 58.99060059 0.00964355 C62.9248888 0.63665237 64.55159112 1.52127802 67.17773438 4.51757812 C67.80592346 7.74304199 67.80592346 7.74304199 67.80883789 11.609375 C67.81599319 12.31554459 67.8231485 13.02171417 67.83052063 13.74928284 C67.84740246 16.07896004 67.82801117 18.40671126 67.80664062 20.73632812 C67.80746939 22.35770832 67.80992904 23.97908844 67.81394958 25.60046387 C67.8168072 28.99675825 67.80211088 32.39239301 67.7746582 35.78857422 C67.7405747 40.1401728 67.74659353 44.49059197 67.76532078 48.84224701 C67.77589371 52.18977676 67.76695045 55.53703247 67.75193596 58.88453674 C67.74675578 60.48888841 67.74723398 62.09326871 67.75348091 63.69761658 C67.75893699 65.94096321 67.73854908 68.18262651 67.71118164 70.42578125 C67.70498306 71.70167114 67.69878448 72.97756104 67.69239807 74.29211426 C67.08956835 78.07012601 66.22442513 79.27127103 63.17773438 81.51757812 C60.24511719 81.97167969 60.24511719 81.97167969 56.88085938 81.90820312 C55.67558594 81.8953125 54.4703125 81.88242188 53.22851562 81.86914062 C51.97425781 81.835625 50.72 81.80210938 49.42773438 81.76757812 C48.15800781 81.74953125 46.88828125 81.73148437 45.58007812 81.71289062 C42.4452036 81.66574965 39.31184877 81.59995477 36.17773438 81.51757812 C36.20915527 82.62214355 36.20915527 82.62214355 36.24121094 83.74902344 C36.32440581 87.08840255 36.37640594 90.42756362 36.42773438 93.76757812 C36.46125 94.92644531 36.49476562 96.0853125 36.52929688 97.27929688 C36.54863281 98.95185547 36.54863281 98.95185547 36.56835938 100.65820312 C36.59978027 102.19782715 36.59978027 102.19782715 36.63183594 103.76855469 C36.0452102 107.31984813 34.96890875 108.29311818 32.17773438 110.51757812 C29.48376465 111.0255127 29.48376465 111.0255127 26.37109375 111.03515625 C24.61907654 111.05406921 24.61907654 111.05406921 22.83166504 111.07336426 C21.57430542 111.06526733 20.3169458 111.05717041 19.02148438 111.04882812 C17.72706421 111.05265503 16.43264404 111.05648193 15.09899902 111.0604248 C12.36186592 111.066315 9.62525579 111.05777351 6.88818359 111.0390625 C3.38401411 111.01627182 -0.11892996 111.02939767 -3.6230545 111.05335236 C-6.97080583 111.07130267 -10.3182295 111.05872573 -13.66601562 111.04882812 C-15.55205505 111.06097351 -15.55205505 111.06097351 -17.47619629 111.07336426 C-18.64420776 111.06075562 -19.81221924 111.04814697 -21.015625 111.03515625 C-22.0428064 111.03197388 -23.06998779 111.0287915 -24.1282959 111.0255127 C-27.60035895 110.37087251 -28.76512724 109.36648732 -30.82226562 106.51757812 C-31.33692932 103.9375 -31.33692932 103.9375 -31.35571289 100.98632812 C-31.37154922 99.87837891 -31.38738556 98.77042969 -31.40370178 97.62890625 C-31.39626198 95.84129883 -31.39626198 95.84129883 -31.38867188 94.01757812 C-31.39487045 92.78974609 -31.40106903 91.56191406 -31.40745544 90.296875 C-31.41455872 87.70117995 -31.41137089 85.10543938 -31.39868164 82.50976562 C-31.38481713 78.53235291 -31.41888347 74.55729203 -31.45703125 70.58007812 C-31.45798241 68.05924421 -31.4561238 65.53840735 -31.45117188 63.01757812 C-31.46443008 61.82583984 -31.47768829 60.63410156 -31.49134827 59.40625 C-31.39947181 51.28420864 -31.39947181 51.28420864 -28.73999023 47.75195312 C-25.12018245 46.22055423 -22.43036288 46.12101374 -18.50976562 46.26757812 C-17.25550781 46.30367187 -16.00125 46.33976562 -14.70898438 46.37695312 C-13.75636719 46.42335937 -12.80375 46.46976563 -11.82226562 46.51757812 C-11.84844971 45.2662207 -11.87463379 44.01486328 -11.90161133 42.72558594 C-11.99213178 38.08156219 -12.04952173 33.43761634 -12.09692383 28.79296875 C-12.12206379 26.78306972 -12.15618092 24.77326208 -12.19946289 22.76367188 C-12.26013778 19.87411969 -12.28848009 16.9857762 -12.31054688 14.09570312 C-12.3363533 13.19764954 -12.36215973 12.29959595 -12.38874817 11.37432861 C-12.38912582 10.53375916 -12.38950348 9.6931897 -12.38989258 8.82714844 C-12.40099564 8.0899054 -12.41209869 7.35266235 -12.42353821 6.59307861 C-10.70173849 0.64969076 -5.40592068 0.01434124 0 0 Z " fill="#44D05E" transform="translate(48.822265625,28.482421875)"/>
<path d="M0 0 C1.20184937 -0.00145523 2.40369873 -0.00291046 3.64196777 -0.00440979 C6.18044461 -0.0027514 8.71893155 0.00880304 11.25732422 0.02954102 C15.14203621 0.05848784 19.02538286 0.05014883 22.91015625 0.03710938 C25.3776108 0.0433471 27.84506104 0.05173829 30.3125 0.0625 C31.47406616 0.05956436 32.63563232 0.05662872 33.83239746 0.05360413 C34.91702271 0.0662883 36.00164795 0.07897247 37.11914062 0.09204102 C38.07002563 0.097444 39.02091064 0.10284698 40.00061035 0.1084137 C43.1956544 0.57483799 45.05835623 1.6011961 47.65625 3.49609375 C49.86528806 6.80965084 49.91548477 7.86943598 49.94677734 11.73022461 C49.95953705 12.79820786 49.97229675 13.8661911 49.98544312 14.96653748 C49.98766876 16.11968948 49.98989441 17.27284149 49.9921875 18.4609375 C50.0021727 20.23821983 50.0021727 20.23821983 50.01235962 22.05140686 C50.02249154 24.55891363 50.02717647 27.06644739 50.02685547 29.57397461 C50.03122883 33.41500139 50.06754564 37.25487972 50.10546875 41.09570312 C50.11133663 43.52994398 50.11530622 45.9641903 50.1171875 48.3984375 C50.13155853 49.54956528 50.14592957 50.70069305 50.16073608 51.88670349 C50.15458282 52.9578389 50.14842957 54.0289743 50.14208984 55.13256836 C50.14493988 56.0739415 50.14778992 57.01531464 50.15072632 57.98521423 C49.48952147 61.3427172 48.40766929 62.4942025 45.65625 64.49609375 C42.96228027 65.00402832 42.96228027 65.00402832 39.84960938 65.01367188 C38.09759216 65.03258484 38.09759216 65.03258484 36.31018066 65.05187988 C35.05282104 65.04378296 33.79546143 65.03568604 32.5 65.02734375 C31.20557983 65.03117065 29.91115967 65.03499756 28.57751465 65.03894043 C25.84038154 65.04483062 23.10377141 65.03628914 20.36669922 65.01757812 C16.86252974 64.99478744 13.35958566 65.00791329 9.85546112 65.03186798 C6.50770979 65.04981829 3.16028613 65.03724135 -0.1875 65.02734375 C-2.07353943 65.03948914 -2.07353943 65.03948914 -3.99768066 65.05187988 C-5.16569214 65.03927124 -6.33370361 65.0266626 -7.53710938 65.01367188 C-8.56429077 65.0104895 -9.59147217 65.00730713 -10.64978027 65.00402832 C-14.12184332 64.34938813 -15.28661161 63.34500295 -17.34375 60.49609375 C-17.8584137 57.91601562 -17.8584137 57.91601562 -17.87719727 54.96484375 C-17.8930336 53.85689453 -17.90886993 52.74894531 -17.92518616 51.60742188 C-17.91774635 49.81981445 -17.91774635 49.81981445 -17.91015625 47.99609375 C-17.91635483 46.76826172 -17.92255341 45.54042969 -17.92893982 44.27539062 C-17.93604309 41.67969557 -17.93285526 39.08395501 -17.92016602 36.48828125 C-17.9063015 32.51086854 -17.94036784 28.53580766 -17.97851562 24.55859375 C-17.97946678 22.03775984 -17.97760817 19.51692298 -17.97265625 16.99609375 C-17.98591446 15.80435547 -17.99917267 14.61261719 -18.01283264 13.38476562 C-17.92246855 5.39642029 -17.92246855 5.39642029 -15.57592773 1.74584961 C-10.43735928 -0.24103248 -5.46134561 -0.05281889 0 0 Z " fill="#FEFEFE" transform="translate(35.34375,74.50390625)"/>
<path d="M0 0 C7.6725 -0.12375 7.6725 -0.12375 15.5 -0.25 C17.09779297 -0.28641602 18.69558594 -0.32283203 20.34179688 -0.36035156 C27.83681722 -0.41887691 33.64096266 -0.39695519 40 4 C44.59400378 8.54072939 46.1731651 11.82592766 46.3125 18.25 C46.26436691 23.7070896 45.88459924 26.90542242 42 31 C39.375 33.25 39.375 33.25 37 35 C36.34 35.66 35.68 36.32 35 37 C35.36351562 37.63091553 35.72703125 38.26183105 36.1015625 38.91186523 C37.73659512 41.75247239 39.36833878 44.59495507 41 47.4375 C41.57234375 48.43072266 42.1446875 49.42394531 42.734375 50.44726562 C43.27578125 51.39150391 43.8171875 52.33574219 44.375 53.30859375 C44.87773437 54.18314209 45.38046875 55.05769043 45.8984375 55.95874023 C47 58 47 58 47 59 C41.06 59 35.12 59 29 59 C27.16155559 55.71109457 25.3290654 52.41911532 23.5 49.125 C22.97535156 48.18785156 22.45070312 47.25070313 21.91015625 46.28515625 C21.16572266 44.94130859 21.16572266 44.94130859 20.40625 43.5703125 C19.94541016 42.74289551 19.48457031 41.91547852 19.00976562 41.06298828 C18 39 18 39 18 37 C17.01 37 16.02 37 15 37 C15 44.26 15 51.52 15 59 C10.05 59 5.1 59 0 59 C0 39.53 0 20.06 0 0 Z M15 12 C15 16.62 15 21.24 15 26 C16.8975 26.0825 18.795 26.165 20.75 26.25 C22.35101563 26.31960937 22.35101563 26.31960937 23.984375 26.390625 C27.0882003 26.24048773 27.0882003 26.24048773 29.38671875 24.20703125 C31.34244774 21.97614765 31.34244774 21.97614765 31.0625 18.4375 C30.28916515 14.98771688 30.28916515 14.98771688 28.0625 13.0625 C23.60129114 11.51473366 19.71144874 11.81154205 15 12 Z " fill="#44D05E" transform="translate(140,28)"/>
<path d="M0 0 C4.95 0 9.9 0 15 0 C15 7.59 15 15.18 15 23 C22.26 23 29.52 23 37 23 C37 15.41 37 7.82 37 0 C41.95 0 46.9 0 52 0 C52 19.47 52 38.94 52 59 C47.05 59 42.1 59 37 59 C37 51.08 37 43.16 37 35 C29.74 35 22.48 35 15 35 C15 42.92 15 50.84 15 59 C10.05 59 5.1 59 0 59 C0 39.53 0 20.06 0 0 Z " fill="#44D05E" transform="translate(195,28)"/>
<path d="M0 0 C13 0 13 0 15.80517578 2.03198242 C16.3464209 2.96373291 16.88766602 3.8954834 17.4453125 4.85546875 C18.06664062 5.87060547 18.68796875 6.88574219 19.328125 7.93164062 C19.92109375 9.00607422 20.5140625 10.08050781 21.125 11.1875 C22.07246094 12.77014648 22.07246094 12.77014648 23.0390625 14.38476562 C24.73614092 17.23420344 26.37060513 20.11157514 28 23 C28.99 24.65 29.98 26.3 31 28 C31.33 18.76 31.66 9.52 32 0 C36.29 0 40.58 0 45 0 C45 16.5 45 33 45 50 C40.38 50 35.76 50 31 50 C27.65371124 46.57663741 26.00547613 44.44896898 23.875 40.375 C23.35164063 39.47136719 22.82828125 38.56773437 22.2890625 37.63671875 C21.31041546 35.94385708 20.35287388 34.23846265 19.42529297 32.51708984 C17.76670377 29.58799518 15.86716681 26.80075022 14 24 C13.67 32.58 13.34 41.16 13 50 C8.71 50 4.42 50 0 50 C0 33.5 0 17 0 0 Z " fill="#FEFEFE" transform="translate(299,95)"/>
<path d="M0 0 C13 0 13 0 15.80517578 2.03198242 C16.3464209 2.96373291 16.88766602 3.8954834 17.4453125 4.85546875 C18.06664062 5.87060547 18.68796875 6.88574219 19.328125 7.93164062 C19.92109375 9.00607422 20.5140625 10.08050781 21.125 11.1875 C22.07246094 12.77014648 22.07246094 12.77014648 23.0390625 14.38476562 C24.73614092 17.23420344 26.37060513 20.11157514 28 23 C28.99 24.65 29.98 26.3 31 28 C31.33 18.76 31.66 9.52 32 0 C36.29 0 40.58 0 45 0 C45 16.5 45 33 45 50 C40.38 50 35.76 50 31 50 C27.65371124 46.57663741 26.00547613 44.44896898 23.875 40.375 C23.35164063 39.47136719 22.82828125 38.56773437 22.2890625 37.63671875 C21.31041546 35.94385708 20.35287388 34.23846265 19.42529297 32.51708984 C17.76670377 29.58799518 15.86716681 26.80075022 14 24 C13.67 32.58 13.34 41.16 13 50 C8.71 50 4.42 50 0 50 C0 33.5 0 17 0 0 Z " fill="#FEFEFE" transform="translate(246,95)"/>
<path d="M0 0 C5.74744858 -0.07426628 11.4946166 -0.12865726 17.24243164 -0.16479492 C19.19690823 -0.17986301 21.15135112 -0.20032124 23.10571289 -0.22631836 C25.91821623 -0.26278865 28.73027174 -0.27974622 31.54296875 -0.29296875 C32.41398727 -0.30845261 33.2850058 -0.32393646 34.18241882 -0.33988953 C38.94374702 -0.34120448 42.16453489 -0.14765034 46 3 C48.42204038 6.63306058 48.23302891 8.31819023 48.1953125 12.63671875 C48.18886719 13.93544922 48.18242188 15.23417969 48.17578125 16.57226562 C48.1590706 17.94401307 48.14214071 19.31575786 48.125 20.6875 C48.11496674 22.07095718 48.10584149 23.45442127 48.09765625 24.83789062 C48.07404967 28.22543452 48.04112037 31.61263072 48 35 C42.11015713 35.09900816 36.22080055 35.17153481 30.33032227 35.21972656 C28.32730672 35.23981991 26.32434968 35.26709965 24.3215332 35.30175781 C21.43946892 35.35037611 18.55818134 35.37299152 15.67578125 35.390625 C14.33644279 35.42159271 14.33644279 35.42159271 12.970047 35.45318604 C8.8207301 35.45467755 6.57946188 35.34988133 2.95776367 33.16308594 C-0.3509485 29.50736954 -0.11909934 26.32095382 -0.09765625 21.58203125 C-0.09443359 20.32841797 -0.09121094 19.07480469 -0.08789062 17.78320312 C-0.07951172 16.47287109 -0.07113281 15.16253906 -0.0625 13.8125 C-0.05748317 12.47721519 -0.05292059 11.14192859 -0.04882812 9.80664062 C-0.03702695 6.53771527 -0.02056297 3.26888009 0 0 Z " fill="#DEF6E3" transform="translate(37,75)"/>
<path d="M0 0 C4.92684902 3.48597808 8.7384787 7.96765538 11.5703125 13.27734375 C12.96973886 22.19868682 12.90907587 30.58651916 8.0703125 38.46484375 C2.89767276 44.65332922 -3.23612547 47.76424946 -11.18359375 48.7421875 C-18.45570897 49.05836642 -25.01784179 47.27967381 -30.7421875 42.71484375 C-35.75321665 38.04098362 -38.50331327 32.61894694 -39.203125 25.80078125 C-39.4994527 17.16168911 -37.90377369 10.86326769 -32.02734375 4.359375 C-23.40785346 -3.66452671 -10.64473969 -5.51876726 0 0 Z M-21.9296875 11.46484375 C-25.7862855 15.57854828 -26.27673291 19.74228282 -26.21484375 25.1796875 C-25.6679188 29.56257923 -23.08775458 32.17810255 -20.2421875 35.33984375 C-16.51461262 37.15325856 -12.97996573 37.22295475 -8.9296875 36.46484375 C-5.06739176 34.40713016 -2.5789654 31.49807788 -0.9296875 27.46484375 C-0.14189815 21.83777697 -0.72869955 17.26632568 -3.9296875 12.46484375 C-9.24000389 6.9648732 -15.7397761 8.01277778 -21.9296875 11.46484375 Z " fill="#FEFEFE" transform="translate(227.9296875,97.53515625)"/>
<path d="M0 0 C3.28290448 3.37163162 7.3125 8.47451986 7.3125 13.375 C-5.32366841 14.15394189 -5.32366841 14.15394189 -8.63671875 12.26171875 C-9.08660156 11.80410156 -9.53648437 11.34648438 -10 10.875 C-12.88307736 8.19306757 -13.51119572 7.93327472 -17.25 7.75 C-20.86559886 7.95120533 -21.66325997 8.35631497 -24.6875 10.6875 C-28.20225773 15.4104557 -28.05438345 19.717271 -27.6875 25.375 C-27.17224579 28.76300816 -27.17224579 28.76300816 -25.6875 31.375 C-21.86664047 33.77668313 -18.10852219 33.76973412 -13.6875 33.375 C-9.95946535 31.62771222 -9.95946535 31.62771222 -7.6875 28.375 C-2.7375 28.375 2.2125 28.375 7.3125 28.375 C5.3416423 35.39618056 2.43468876 39.34331472 -3.6875 43.375 C-10.78454463 46.86170137 -17.61116922 47.40118023 -25.1875 45.3125 C-32.09014113 42.73742144 -37.10418223 38.41670579 -40.1875 31.6875 C-42.70580058 24.28999206 -42.97886981 16.70299453 -39.9375 9.4375 C-36.40917169 2.62671992 -32.31053654 -1.8294085 -24.828125 -4.21875 C-15.74550448 -5.942459 -7.86957049 -4.75834495 0 0 Z " fill="#FEFEFE" transform="translate(429.6875,99.625)"/>
<path d="M0 0 C3.28290448 3.37163162 7.3125 8.47451986 7.3125 13.375 C-5.32366841 14.15394189 -5.32366841 14.15394189 -8.63671875 12.26171875 C-9.08660156 11.80410156 -9.53648437 11.34648438 -10 10.875 C-12.88307736 8.19306757 -13.51119572 7.93327472 -17.25 7.75 C-20.86559886 7.95120533 -21.66325997 8.35631497 -24.6875 10.6875 C-28.20225773 15.4104557 -28.05438345 19.717271 -27.6875 25.375 C-27.17224579 28.76300816 -27.17224579 28.76300816 -25.6875 31.375 C-21.86664047 33.77668313 -18.10852219 33.76973412 -13.6875 33.375 C-9.95946535 31.62771222 -9.95946535 31.62771222 -7.6875 28.375 C-2.7375 28.375 2.2125 28.375 7.3125 28.375 C5.3416423 35.39618056 2.43468876 39.34331472 -3.6875 43.375 C-10.78454463 46.86170137 -17.61116922 47.40118023 -25.1875 45.3125 C-32.09014113 42.73742144 -37.10418223 38.41670579 -40.1875 31.6875 C-42.70580058 24.28999206 -42.97886981 16.70299453 -39.9375 9.4375 C-36.40917169 2.62671992 -32.31053654 -1.8294085 -24.828125 -4.21875 C-15.74550448 -5.942459 -7.86957049 -4.75834495 0 0 Z " fill="#FEFEFE" transform="translate(177.6875,99.625)"/>
<path d="M0 0 C10.23 0 20.46 0 31 0 C31 3.63 31 7.26 31 11 C25.06 11 19.12 11 13 11 C13 13.97 13 16.94 13 20 C18.28 20 23.56 20 29 20 C29 23.3 29 26.6 29 30 C23.72 30 18.44 30 13 30 C13 33.3 13 36.6 13 40 C18.94 40 24.88 40 31 40 C31 43.3 31 46.6 31 50 C20.77 50 10.54 50 0 50 C0 33.5 0 17 0 0 Z " fill="#FEFEFE" transform="translate(352,95)"/>
<path d="M0 0 C12.87 0 25.74 0 39 0 C39 3.63 39 7.26 39 11 C34.71 11 30.42 11 26 11 C26 23.87 26 36.74 26 50 C21.71 50 17.42 50 13 50 C13 37.13 13 24.26 13 11 C8.71 11 4.42 11 0 11 C0 7.37 0 3.74 0 0 Z " fill="#FEFEFE" transform="translate(440,95)"/>
<path d="M0 0 C4.95 0 9.9 0 15 0 C15 4.62 15 9.24 15 14 C10.05 14 5.1 14 0 14 C0 9.38 0 4.76 0 0 Z " fill="#FFFFFF" transform="translate(101,120)"/>
<path d="M0 0 C3.3 0 6.6 0 10 0 C10 3.63 10 7.26 10 11 C6.7 11 3.4 11 0 11 C0 7.37 0 3.74 0 0 Z " fill="#FFFFFF" transform="translate(20,30)"/>
</svg>
