<?xml version="1.0" encoding="UTF-8"?>
<svg version="1.1" xmlns="http://www.w3.org/2000/svg" width="134" height="180">
<path d="M0 0 C0.66569504 -0.00700928 1.33139008 -0.01401855 2.01725769 -0.02124023 C4.20659734 -0.03877248 6.39463276 -0.02721615 8.58398438 -0.01367188 C10.11185961 -0.0163682 11.63973316 -0.0202518 13.16760254 -0.02526855 C16.36531965 -0.03115708 19.56258896 -0.02262206 22.76025391 -0.00390625 C26.85276179 0.0188836 30.94422035 0.00575696 35.03668976 -0.01819611 C38.19036725 -0.03267196 41.34379723 -0.02804005 44.4974823 -0.01768494 C46.00612005 -0.01502256 47.51478049 -0.01827023 49.02339172 -0.02760315 C51.13468675 -0.0377991 53.24429865 -0.02222906 55.35546875 0 C57.15485901 0.00477356 57.15485901 0.00477356 58.99060059 0.00964355 C62.9248888 0.63665237 64.55159112 1.52127802 67.17773438 4.51757812 C67.80592346 7.74304199 67.80592346 7.74304199 67.80883789 11.609375 C67.81599319 12.31554459 67.8231485 13.02171417 67.83052063 13.74928284 C67.84740246 16.07896004 67.82801117 18.40671126 67.80664062 20.73632812 C67.80746939 22.35770832 67.80992904 23.97908844 67.81394958 25.60046387 C67.8168072 28.99675825 67.80211088 32.39239301 67.7746582 35.78857422 C67.7405747 40.1401728 67.74659353 44.49059197 67.76532078 48.84224701 C67.77589371 52.18977676 67.76695045 55.53703247 67.75193596 58.88453674 C67.74675578 60.48888841 67.74723398 62.09326871 67.75348091 63.69761658 C67.75893699 65.94096321 67.73854908 68.18262651 67.71118164 70.42578125 C67.70498306 71.70167114 67.69878448 72.97756104 67.69239807 74.29211426 C67.08956835 78.07012601 66.22442513 79.27127103 63.17773438 81.51757812 C60.24511719 81.97167969 60.24511719 81.97167969 56.88085938 81.90820312 C55.67558594 81.8953125 54.4703125 81.88242188 53.22851562 81.86914062 C51.97425781 81.835625 50.72 81.80210938 49.42773438 81.76757812 C48.15800781 81.74953125 46.88828125 81.73148437 45.58007812 81.71289062 C42.4452036 81.66574965 39.31184877 81.59995477 36.17773438 81.51757812 C36.20915527 82.62214355 36.20915527 82.62214355 36.24121094 83.74902344 C36.32440581 87.08840255 36.37640594 90.42756362 36.42773438 93.76757812 C36.46125 94.92644531 36.49476562 96.0853125 36.52929688 97.27929688 C36.54863281 98.95185547 36.54863281 98.95185547 36.56835938 100.65820312 C36.59978027 102.19782715 36.59978027 102.19782715 36.63183594 103.76855469 C36.0452102 107.31984813 34.96890875 108.29311818 32.17773438 110.51757812 C29.48376465 111.0255127 29.48376465 111.0255127 26.37109375 111.03515625 C24.61907654 111.05406921 24.61907654 111.05406921 22.83166504 111.07336426 C21.57430542 111.06526733 20.3169458 111.05717041 19.02148438 111.04882812 C17.72706421 111.05265503 16.43264404 111.05648193 15.09899902 111.0604248 C12.36186592 111.066315 9.62525579 111.05777351 6.88818359 111.0390625 C3.38401411 111.01627182 -0.11892996 111.02939767 -3.6230545 111.05335236 C-6.97080583 111.07130267 -10.3182295 111.05872573 -13.66601562 111.04882812 C-15.55205505 111.06097351 -15.55205505 111.06097351 -17.47619629 111.07336426 C-18.64420776 111.06075562 -19.81221924 111.04814697 -21.015625 111.03515625 C-22.0428064 111.03197388 -23.06998779 111.0287915 -24.1282959 111.0255127 C-27.60035895 110.37087251 -28.76512724 109.36648732 -30.82226562 106.51757812 C-31.33692932 103.9375 -31.33692932 103.9375 -31.35571289 100.98632812 C-31.37154922 99.87837891 -31.38738556 98.77042969 -31.40370178 97.62890625 C-31.39626198 95.84129883 -31.39626198 95.84129883 -31.38867188 94.01757812 C-31.39487045 92.78974609 -31.40106903 91.56191406 -31.40745544 90.296875 C-31.41455872 87.70117995 -31.41137089 85.10543938 -31.39868164 82.50976562 C-31.38481713 78.53235291 -31.41888347 74.55729203 -31.45703125 70.58007812 C-31.45798241 68.05924421 -31.4561238 65.53840735 -31.45117188 63.01757812 C-31.46443008 61.82583984 -31.47768829 60.63410156 -31.49134827 59.40625 C-31.39947181 51.28420864 -31.39947181 51.28420864 -28.73999023 47.75195312 C-25.12018245 46.22055423 -22.43036288 46.12101374 -18.50976562 46.26757812 C-17.25550781 46.30367187 -16.00125 46.33976562 -14.70898438 46.37695312 C-13.75636719 46.42335937 -12.80375 46.46976563 -11.82226562 46.51757812 C-11.84844971 45.2662207 -11.87463379 44.01486328 -11.90161133 42.72558594 C-11.99213178 38.08156219 -12.04952173 33.43761634 -12.09692383 28.79296875 C-12.12206379 26.78306972 -12.15618092 24.77326208 -12.19946289 22.76367188 C-12.26013778 19.87411969 -12.28848009 16.9857762 -12.31054688 14.09570312 C-12.3363533 13.19764954 -12.36215973 12.29959595 -12.38874817 11.37432861 C-12.38912582 10.53375916 -12.38950348 9.6931897 -12.38989258 8.82714844 C-12.40099564 8.0899054 -12.41209869 7.35266235 -12.42353821 6.59307861 C-10.70173849 0.64969076 -5.40592068 0.01434124 0 0 Z " fill="#43CF5D" transform="translate(48.822265625,28.482421875)"/>
<path d="M0 0 C1.20184937 -0.00145523 2.40369873 -0.00291046 3.64196777 -0.00440979 C6.18044461 -0.0027514 8.71893155 0.00880304 11.25732422 0.02954102 C15.14203621 0.05848784 19.02538286 0.05014883 22.91015625 0.03710938 C25.3776108 0.0433471 27.84506104 0.05173829 30.3125 0.0625 C31.47406616 0.05956436 32.63563232 0.05662872 33.83239746 0.05360413 C34.91702271 0.0662883 36.00164795 0.07897247 37.11914062 0.09204102 C38.07002563 0.097444 39.02091064 0.10284698 40.00061035 0.1084137 C43.1956544 0.57483799 45.05835623 1.6011961 47.65625 3.49609375 C49.86528806 6.80965084 49.91548477 7.86943598 49.94677734 11.73022461 C49.95953705 12.79820786 49.97229675 13.8661911 49.98544312 14.96653748 C49.98766876 16.11968948 49.98989441 17.27284149 49.9921875 18.4609375 C50.0021727 20.23821983 50.0021727 20.23821983 50.01235962 22.05140686 C50.02249154 24.55891363 50.02717647 27.06644739 50.02685547 29.57397461 C50.03122883 33.41500139 50.06754564 37.25487972 50.10546875 41.09570312 C50.11133663 43.52994398 50.11530622 45.9641903 50.1171875 48.3984375 C50.13155853 49.54956528 50.14592957 50.70069305 50.16073608 51.88670349 C50.15458282 52.9578389 50.14842957 54.0289743 50.14208984 55.13256836 C50.14493988 56.0739415 50.14778992 57.01531464 50.15072632 57.98521423 C49.48952147 61.3427172 48.40766929 62.4942025 45.65625 64.49609375 C42.96228027 65.00402832 42.96228027 65.00402832 39.84960938 65.01367188 C38.09759216 65.03258484 38.09759216 65.03258484 36.31018066 65.05187988 C35.05282104 65.04378296 33.79546143 65.03568604 32.5 65.02734375 C31.20557983 65.03117065 29.91115967 65.03499756 28.57751465 65.03894043 C25.84038154 65.04483062 23.10377141 65.03628914 20.36669922 65.01757812 C16.86252974 64.99478744 13.35958566 65.00791329 9.85546112 65.03186798 C6.50770979 65.04981829 3.16028613 65.03724135 -0.1875 65.02734375 C-2.07353943 65.03948914 -2.07353943 65.03948914 -3.99768066 65.05187988 C-5.16569214 65.03927124 -6.33370361 65.0266626 -7.53710938 65.01367188 C-8.56429077 65.0104895 -9.59147217 65.00730713 -10.64978027 65.00402832 C-14.12184332 64.34938813 -15.28661161 63.34500295 -17.34375 60.49609375 C-17.8584137 57.91601562 -17.8584137 57.91601562 -17.87719727 54.96484375 C-17.8930336 53.85689453 -17.90886993 52.74894531 -17.92518616 51.60742188 C-17.91774635 49.81981445 -17.91774635 49.81981445 -17.91015625 47.99609375 C-17.91635483 46.76826172 -17.92255341 45.54042969 -17.92893982 44.27539062 C-17.93604309 41.67969557 -17.93285526 39.08395501 -17.92016602 36.48828125 C-17.9063015 32.51086854 -17.94036784 28.53580766 -17.97851562 24.55859375 C-17.97946678 22.03775984 -17.97760817 19.51692298 -17.97265625 16.99609375 C-17.98591446 15.80435547 -17.99917267 14.61261719 -18.01283264 13.38476562 C-17.92246855 5.39642029 -17.92246855 5.39642029 -15.57592773 1.74584961 C-10.43735928 -0.24103248 -5.46134561 -0.05281889 0 0 Z " fill="#0D172E" transform="translate(35.34375,74.50390625)"/>
<path d="M0 0 C5.74744858 -0.07426628 11.4946166 -0.12865726 17.24243164 -0.16479492 C19.19690823 -0.17986301 21.15135112 -0.20032124 23.10571289 -0.22631836 C25.91821623 -0.26278865 28.73027174 -0.27974622 31.54296875 -0.29296875 C32.41398727 -0.30845261 33.2850058 -0.32393646 34.18241882 -0.33988953 C38.94374702 -0.34120448 42.16453489 -0.14765034 46 3 C48.42204038 6.63306058 48.23302891 8.31819023 48.1953125 12.63671875 C48.18886719 13.93544922 48.18242188 15.23417969 48.17578125 16.57226562 C48.1590706 17.94401307 48.14214071 19.31575786 48.125 20.6875 C48.11496674 22.07095718 48.10584149 23.45442127 48.09765625 24.83789062 C48.07404967 28.22543452 48.04112037 31.61263072 48 35 C42.25255142 35.07426628 36.5053834 35.12865726 30.75756836 35.16479492 C28.80309177 35.17986301 26.84864888 35.20032124 24.89428711 35.22631836 C22.08178377 35.26278865 19.26972826 35.27974622 16.45703125 35.29296875 C15.15050346 35.31619453 15.15050346 35.31619453 13.81758118 35.33988953 C9.05625298 35.34120448 5.83546511 35.14765034 2 32 C-0.42204038 28.36693942 -0.23302891 26.68180977 -0.1953125 22.36328125 C-0.18886719 21.06455078 -0.18242188 19.76582031 -0.17578125 18.42773438 C-0.1590706 17.05598693 -0.14214071 15.68424214 -0.125 14.3125 C-0.11496674 12.92904282 -0.10584149 11.54557873 -0.09765625 10.16210938 C-0.07404967 6.77456548 -0.04112037 3.38736928 0 0 Z " fill="#163636" transform="translate(37,75)"/>
<path d="M0 0 C4.95 0 9.9 0 15 0 C15 4.62 15 9.24 15 14 C10.05 14 5.1 14 0 14 C0 9.38 0 4.76 0 0 Z " fill="#0D172E" transform="translate(101,120)"/>
<path d="M0 0 C3.3 0 6.6 0 10 0 C10 3.63 10 7.26 10 11 C6.7 11 3.4 11 0 11 C0 7.37 0 3.74 0 0 Z " fill="#0D172E" transform="translate(20,30)"/>
</svg>
